<?xml version="1.0" encoding="UTF-8"?>
<!-- Generator: Adobe Illustrator 21.0.0, SVG Export Plug-In . SVG Version: 6.00 Build 0)  -->
<svg width="60" height="45" enable-background="new 0 0 128 128" version="1.1" viewBox="0 0 60 45" xml:space="preserve" xmlns="http://www.w3.org/2000/svg" xmlns:cc="http://creativecommons.org/ns#" xmlns:dc="http://purl.org/dc/elements/1.1/" xmlns:rdf="http://www.w3.org/1999/02/22-rdf-syntax-ns#"><metadata><rdf:RDF><cc:Work rdf:about=""><dc:format>image/svg+xml</dc:format><dc:type rdf:resource="http://purl.org/dc/dcmitype/StillImage"/></cc:Work></rdf:RDF></metadata><g transform="translate(-34.002 -41.5)"><line y1="128" fill="none"/></g><line x1="-34.002" x2="-34.002" y1="86.5" y2="-41.5" clip-rule="evenodd" opacity="0"/><linearGradient id="SVGID_1_" x1="95.267" x2="26.7" y1="91.926" y2="30.68" gradientTransform="matrix(.5 0 0 .5 -2.0012 -9.5)" gradientUnits="userSpaceOnUse"><stop stop-color="#A9C8FF" offset="0"/><stop stop-color="#C7E6FF" offset="1"/></linearGradient><path d="m2.5153 45c-0.8165 0-1.523-0.319-1.989-0.899-0.476-0.5925-0.6395-1.407-0.448-2.235l8.993-38.956c0.377-1.632 1.9585-2.9105 3.602-2.9105h44.811c0.817 0 1.5235 0.319 1.989 0.899 0.476 0.592 0.6395 1.407 0.448 2.235l-8.993 38.956c-0.3765 1.632-1.9585 2.911-3.6015 2.911h-44.812z" clip-rule="evenodd" fill="url(#SVGID_1_)" fill-rule="evenodd" opacity=".8" stroke-width=".5"/><g transform="matrix(.5 0 0 .5 -2.0012 -9.5)"><linearGradient id="SVGID_2_" x1="26.585" x2="93.585" y1="30.778" y2="90.278" gradientUnits="userSpaceOnUse"><stop stop-color="#2D4664" offset="0"/><stop stop-color="#29405B" offset=".1689"/><stop stop-color="#1E2F43" offset=".4445"/><stop stop-color="#0C131B" offset=".7902"/><stop offset="1"/></linearGradient><path d="m118.5 20h-88.866c-2.769 0-5.53 2.259-6.168 5.045l-17.834 77.91c-0.637 2.787 1.09 5.045 3.859 5.045h88.865c2.769 0 5.53-2.258 6.168-5.045l17.834-77.911c0.638-2.785-1.09-5.044-3.858-5.044z" clip-rule="evenodd" fill="url(#SVGID_2_)" fill-rule="evenodd"/></g><g clip-rule="evenodd" fill-rule="evenodd" stroke-width=".5"><path d="m30.081 34.279h10.806c1.2565 0 2.275 1.0625 2.275 2.373s-1.0185 2.3735-2.275 2.3735h-10.806c-1.2565 0-2.275-1.0625-2.275-2.3735 0-1.3105 1.0185-2.373 2.275-2.373z" fill="#2c5591"/><path d="m37.091 23.728c-0.186 0.3745-0.572 0.7875-1.2545 1.267l-20.056 14.404c-1.095 0.7955-2.667 0.5005-3.5105-0.6595s-0.64-2.745 0.455-3.541l18.086-13.097v-0.269l-11.364-12.089c-0.927-0.986-0.8305-2.5805 0.2155-3.562 1.046-0.981 2.645-0.977 3.572 9e-3l13.636 14.506c0.774 0.8235 0.8315 2.0705 0.221 3.031z" fill="#2c5591"/><path d="m36.591 23.228c-0.186 0.3745-0.572 0.7875-1.2545 1.267l-20.056 14.404c-1.095 0.7955-2.667 0.5005-3.5105-0.6595s-0.64-2.745 0.455-3.541l18.086-13.097v-0.269l-11.364-12.089c-0.927-0.986-0.8305-2.5805 0.2155-3.562 1.046-0.981 2.645-0.977 3.572 9e-3l13.636 14.506c0.774 0.8235 0.8315 2.0705 0.221 3.031z" fill="#fff"/><path d="m29.774 34h10.806c1.2565 0 2.275 1.0075 2.275 2.25s-1.0185 2.25-2.275 2.25h-10.806c-1.2565 0-2.275-1.0075-2.275-2.25s1.0185-2.25 2.275-2.25z" fill="#fff"/></g></svg>
